<?xml version="1.0" encoding="UTF-8" standalone="no"?>
<svg
   xmlns:dc="http://purl.org/dc/elements/1.1/"
   xmlns:cc="http://creativecommons.org/ns#"
   xmlns:rdf="http://www.w3.org/1999/02/22-rdf-syntax-ns#"
   xmlns:svg="http://www.w3.org/2000/svg"
   xmlns="http://www.w3.org/2000/svg"
   xmlns:sodipodi="http://sodipodi.sourceforge.net/DTD/sodipodi-0.dtd"
   xmlns:inkscape="http://www.inkscape.org/namespaces/inkscape"
   version="1.1"
   viewBox="0 0 976.94373 122.34708"
   stroke-miterlimit="10"
   id="svg18"
   sodipodi:docname="ironhacks-logo.svg"
   inkscape:version="0.92.3 (2405546, 2018-03-11)"
   width="976.94373"
   height="122.34708"
   style="fill:none;stroke:none;stroke-linecap:square;stroke-miterlimit:10">
  <metadata
     id="metadata24">
    <rdf:RDF>
      <cc:Work
         rdf:about="">
        <dc:format>image/svg+xml</dc:format>
        <dc:type
           rdf:resource="http://purl.org/dc/dcmitype/StillImage" />
        <dc:title></dc:title>
      </cc:Work>
    </rdf:RDF>
  </metadata>
  <defs
     id="defs22" />
  <sodipodi:namedview
     pagecolor="#ffffff"
     bordercolor="#666666"
     borderopacity="1"
     objecttolerance="10"
     gridtolerance="10"
     guidetolerance="10"
     inkscape:pageopacity="0"
     inkscape:pageshadow="2"
     inkscape:window-width="1920"
     inkscape:window-height="1029"
     id="namedview20"
     showgrid="false"
     inkscape:zoom="0.6180637"
     inkscape:cx="384.15177"
     inkscape:cy="295.79707"
     inkscape:window-x="3840"
     inkscape:window-y="0"
     inkscape:window-maximized="1"
     inkscape:current-layer="g834"
     fit-margin-top="15"
     fit-margin-left="15"
     fit-margin-right="15"
     fit-margin-bottom="15" />
  <g
     id="g834"
     transform="matrix(0.77081345,0,0,0.77081345,15,14.906386)">
    <g
       id="g900"
       style="fill:currentColor">
      <path
         id="path864"
         transform="matrix(1.2973308,0,0,1.2973308,-19.459961,-19.338513)"
         d="m 250.49219,15.523438 -4.10742,4.412109 -4.10743,4.414062 h -7.29296 -7.29102 l -4.02148,-4.410156 -4.02149,-4.408203 -7.2168,4.119141 c -3.97007,2.265825 -7.41004,4.605415 -7.64257,5.197265 -0.23254,0.591851 0.38506,3.402579 1.37109,6.246094 l 1.79297,5.169922 -2.01367,2.638672 c -1.10756,1.452087 -2.70637,4.192184 -3.55079,6.08789 -1.52062,3.413818 -1.58826,3.45834 -7.16796,4.603516 l -5.63282,1.15625 -0.21875,9.066406 c -0.24796,10.348592 -0.49696,9.979544 7.51953,11.042969 3.71867,0.493298 3.96236,0.673852 5.44922,4.035156 0.85603,1.935184 2.4715,4.720666 3.5918,6.189453 l 2.03711,2.669922 -1.77734,5.220703 c -0.97748,2.87115 -1.58412,5.720915 -1.34961,6.332032 0.2345,0.611116 3.48898,2.879912 7.23242,5.042969 3.74344,2.16306 7.19777,3.9428 7.67578,3.95312 0.47801,0.0104 2.46343,-1.91811 4.41211,-4.28515 l 3.54297,-4.304689 h 7.45898 7.45899 l 3.41406,4.304689 c 1.87777,2.36704 3.77933,4.30273 4.22461,4.30273 1.5107,0 14.59843,-7.884457 15.05273,-9.068357 0.24838,-0.647252 -0.35576,-3.504141 -1.34179,-6.347656 l -1.79297,-5.169922 2.02929,-2.660156 c 1.11617,-1.463371 2.73662,-4.256076 3.59961,-6.207031 1.51086,-3.415537 1.71893,-3.569165 5.61133,-4.101563 7.91012,-1.081938 7.58967,-0.604661 7.3418,-10.949219 L 280.54492,50.75 274.91406,49.582031 c -5.56663,-1.153924 -5.64718,-1.206734 -7.16797,-4.603515 -0.84603,-1.889683 -2.44517,-4.624085 -3.55273,-6.076172 l -2.01367,-2.638672 1.79297,-5.169922 c 0.98603,-2.843515 1.608,-5.654243 1.38086,-6.246094 -0.22716,-0.59185 -3.6638,-2.932996 -7.63672,-5.201172 z m -15.83594,28.96875 c 9.39289,-0.341212 17.98468,9.429068 15.49805,18.974609 -1.12098,4.303124 -4.24389,8.287204 -8.04492,10.259765 -3.55566,1.845221 -8.46464,2.29308 -12.04493,1.09961 -3.80246,-1.267533 -8.70347,-6.447799 -9.90625,-10.472656 -2.46878,-8.261315 2.76675,-17.049893 11.56836,-19.419922 0.97741,-0.26319 1.95801,-0.406109 2.92969,-0.441406 z"
         inkscape:connector-curvature="0" />
      <path
         id="path880"
         d="M 0,60 V 2 H 15.5 31 v 58 58 H 15.5 0 Z"
         inkscape:connector-curvature="0" />
      <path
         id="path878"
         transform="matrix(1.2973308,0,0,1.2973308,-19.459961,-19.338513)"
         d="M 84.373047,16.302734 V 61.082031 105.86328 H 96.320312 108.26758 V 89.289062 72.716797 h 2.91406 2.91211 l 9.5918,16.572265 9.58984,16.574218 h 13.69336 13.69336 l -13.13867,-19.464842 -13.13867,-19.462891 1.77929,-1.15625 c 3.51033,-2.279756 8.47474,-7.289822 10.26563,-10.361328 3.78629,-6.493756 4.11541,-17.542953 0.73437,-24.667969 -1.56358,-3.295022 -6.12762,-7.887605 -9.60547,-9.667969 -7.18174,-3.676446 -10.21828,-4.095463 -32.18164,-4.445312 z m 23.894533,17.873047 3.27734,0.01953 c 9.00594,0.05055 13.68313,3.410137 13.67774,9.822266 -0.004,4.59899 -2.21275,8.375208 -5.76954,9.861328 -1.46091,0.61041 -4.57459,1.109375 -6.91992,1.109375 h -4.26562 V 44.58203 Z"
         inkscape:connector-curvature="0" />
      <path
         id="path874"
         d="M 395,60 V 2 h 20.41239 20.41239 L 457,42.5 c 11.64637,22.275 21.24829,40.500254 21.33761,40.500564 0.0893,3.11e-4 0.0222,-18.224689 -0.14924,-40.5 L 477.87673,2 H 491.43837 505 v 58 58 H 484.65298 464.30596 L 443.52166,77.75 C 432.0903,55.6125 422.45896,37.184847 422.11868,36.799661 c -0.34027,-0.385187 -0.46056,17.727313 -0.26729,40.25 L 422.20278,118 H 408.60139 395 Z"
         inkscape:connector-curvature="0" />
    </g>
    <g
       id="g894">
      <path
         id="path884"
         d="m 904.63408,117.47327 c -12.85923,-3.24349 -24.44943,-12.25514 -30.09788,-23.40183 -6.70579,-13.233235 -8.7432,-37.122211 -4.56076,-53.475429 7.3616,-28.783575 31.56916,-43.9051358 63.4866,-39.65771624 10.1526,1.35105874 24.42097,5.59326284 25.14324,7.47546674 0.27272,0.7107001 -1.25692,5.7458445 -3.39921,11.1892105 -2.14229,5.443365 -4.16344,10.652017 -4.49146,11.57478 -0.53129,1.494614 -1.39423,1.332375 -7.9055,-1.486283 -6.5917,-2.853475 -8.2975,-3.165382 -17.37892,-3.177752 -9.06839,-0.01235 -10.42706,0.230841 -13.66218,2.445448 -7.92685,5.42633 -12.12163,16.113263 -12.184,31.040835 -0.0674,16.139337 3.9796,26.092247 12.62181,31.041028 3.80949,2.181425 5.42289,2.450375 14.29418,2.382802 8.50938,-0.06482 11.30854,-0.538433 18.77852,-3.177316 l 8.77852,-3.101146 -0.27852,13.177312 L 953.5,113.5 l -7,2.39916 c -5.85435,2.00651 -9.37313,2.45272 -21.5,2.72642 -10.43391,0.23549 -16.14492,-0.0876 -20.36592,-1.15231 z"
         style="fill:#000000"
         inkscape:connector-curvature="0" />
      <path
         id="path882"
         d="m 1166,118.32196 c -1.375,-0.22312 -5.9875,-1.58973 -10.25,-3.0369 L 1148,112.65384 V 98.719931 c 0,-12.901708 0.1296,-13.875964 1.75,-13.151696 0.9625,0.430218 6.25,2.340626 11.75,4.245353 16.985,5.882144 32.0893,5.559281 35.4704,-0.758197 3.2713,-6.11255 -0.01,-9.410244 -18.2156,-18.33397 -17.0466,-8.353394 -22.0082,-12.09641 -26.1696,-19.742196 -2.3235,-4.269062 -2.9431,-6.852037 -3.3483,-13.958894 -0.7816,-13.708557 2.7213,-21.786672 12.4452,-28.7001355 12.7144,-9.03962436 35.9645,-10.5635937 57.2432,-3.7521094 4.1661,1.3336069 8.164,2.8069998 8.8843,3.2742065 1.026,0.6654894 0.2996,3.3735134 -3.354,12.5035874 -2.565,6.409766 -4.8779,11.65412 -5.1397,11.65412 -0.2618,0 -4.302,-1.350424 -8.9783,-3.000943 C 1192.3458,22.648752 1180,24.240755 1180,32.911106 c 0,4.104432 3.2538,6.501944 20.1015,14.811373 16.2738,8.026343 21.7863,12.240966 25.6877,19.639669 2.4223,4.593677 2.7093,6.197001 2.71,15.137852 7e-4,8.90368 -0.3029,10.61849 -2.7697,15.641507 -4.6906,9.551503 -13.4931,16.259533 -25.4091,19.363253 -5.3725,1.39935 -27.4878,1.92593 -34.3204,0.8172 z"
         style="fill:#000000"
         inkscape:connector-curvature="0" />
      <path
         id="path872"
         d="M 563,60 V 2 h 16 16 V 23.5 45 H 613.5 632 V 23.5 2 h 15.5 15.5 v 58 58 H 647.5181 632.0362 L 631.7681,94.25 631.5,70.5 613.25,70.227441 595,69.954883 V 93.977441 118 h -16 -16 z"
         style="fill:#000000"
         inkscape:connector-curvature="0" />
      <path
         id="path870"
         transform="matrix(1.2973308,0,0,1.2973308,-19.459961,-19.338513)"
         d="m 590.08789,15.677734 -1.48828,4.816407 c -2.80494,9.068513 -27.27981,84.211999 -27.61719,84.791019 -0.18526,0.31796 5.67483,0.57812 13.02344,0.57812 h 13.36133 l 2.20508,-8.480468 2.20507,-8.478515 h 14.83008 14.83008 l 0.49805,2.505859 c 0.27418,1.377829 1.22229,5.192924 2.10742,8.478516 l 1.60937,5.974608 h 13.07227 13.07031 l -0.54883,-1.73437 c -0.30263,-0.95389 -6.91633,-21.103444 -14.69726,-44.775394 -7.78093,-23.67195 -14.14844,-43.182331 -14.14844,-43.357422 0,-0.175092 -7.27039,-0.31836 -16.15625,-0.31836 z m 15.94727,16.921875 c 0.32529,-0.110751 2.5918,7.52213 5.15234,17.378907 2.64315,10.174737 4.66697,18.760164 4.49609,19.078125 -0.17087,0.31796 -4.49367,0.578125 -9.60547,0.578125 -9.26091,0 -9.29267,-0.0062 -8.83398,-1.734375 0.25318,-0.953882 2.24611,-9.01898 4.42774,-17.921875 2.18161,-8.902896 4.13317,-16.707829 4.33789,-17.34375 0.006,-0.01987 0.0149,-0.03158 0.0254,-0.03516 z"
         style="fill:#000000"
         inkscape:connector-curvature="0" />
      <path
         id="path866"
         d="M 1010,60 V 2 h 15.5 15.5 v 24.5 c 0,22.015432 0.5744,27.657497 2.3457,23.041532 0.3078,-0.802158 7.6617,-11.827158 16.3419,-24.5 L 1075.4698,2 h 16.8241 c 13.1793,0 16.6671,0.2708075 16.0992,1.25 -0.3987,0.6875 -8.5132,12.330878 -18.0322,25.874174 l -17.3074,24.624175 17.9081,31.875825 17.9081,31.875826 -17.1105,0.27437 c -9.4108,0.1509 -17.4486,-0.0741 -17.8618,-0.5 -0.4133,-0.4259 -5.5211,-9.98871 -11.3507,-21.250672 -5.8296,-11.261966 -10.9927,-20.869681 -11.4735,-21.350478 -0.4989,-0.498901 -2.8487,0.282975 -5.4737,1.821324 L 1041,79.190044 V 98.595022 118 h -15.5 -15.5 z"
         style="fill:#000000"
         inkscape:connector-curvature="0" />
    </g>
  </g>
</svg>
